<svg id="page100" height="1023" ed:name="页面-1" xmlns:xlink="http://www.w3.org/1999/xlink" xmlns:ed="https://www.edrawsoft.cn/xml/2017/SVGExtensions/" ed:hSpacing="30" viewBox="0 0 671 1023" ed:vSpacing="30" width="671" xmlns="http://www.w3.org/2000/svg" xmlns:ev="http://www.w3.org/2001/xml-events"><style type="text/css"><![CDATA[
g[ed\:togtopicid],g[ed\:hyperlink],g[ed\:comment],g[ed\:note] {cursor:pointer;}
g[id] {-moz-user-select: none;-ms-user-select: none;user-select: none;}
svg text::selection,svg tspan::selection{background-color: #4285f4;color: #ffffff;fill: #ffffff;}
.st3 {fill:#ffffff;font-family:宋体;font-size:10pt}
.st2 {fill:#ffffff;font-family:宋体;font-size:12pt}
.st1 {fill:#ffffff;font-family:宋体;font-size:14pt}
]]></style><defs/><rect height="1023" fill="#ffffff" width="671" y="0" x="0"/><path stroke="#517293" id="103" ed:parentid="101" d="M-38.6,171.6C2.5,82.2,-39.2,-198.6,72.4,-198.6" stroke-width="3" fill="none" ed:tosuperid="102" transform="matrix(1,0,0,1,177.23,310.63)" stroke-linejoin="round" stroke-linecap="round"/><path stroke="#517293" id="105" ed:parentid="102" d="M-13.5,41.3C4.8,41.3,-12.2,-41.3,13.5,-41.3" fill="none" ed:tosuperid="104" transform="matrix(1,0,0,1,371.9,70.75)" stroke-linejoin="round" stroke-linecap="round"/><path stroke="#517293" id="107" ed:parentid="102" d="M-13.5,27.5C3.1,27.5,-8.2,-27.5,13.5,-27.5" fill="none" ed:tosuperid="106" transform="matrix(1,0,0,1,371.9,84.5)" stroke-linejoin="round" stroke-linecap="round"/><path stroke="#517293" id="109" ed:parentid="102" d="M-13.5,13.8C0.5,13.8,-2,-13.8,13.5,-13.8" fill="none" ed:tosuperid="108" transform="matrix(1,0,0,1,371.9,98.25)" stroke-linejoin="round" stroke-linecap="round"/><path stroke="#517293" id="111" ed:parentid="102" d="M-13.5,0C-2.7,0,5.4,0,13.5,0" fill="none" ed:tosuperid="110" transform="matrix(1,0,0,1,371.9,112)" stroke-linejoin="round" stroke-linecap="round"/><path stroke="#517293" id="113" ed:parentid="102" d="M-13.5,-13.8C0.5,-13.8,-2,13.8,13.5,13.8" fill="none" ed:tosuperid="112" transform="matrix(1,0,0,1,371.9,125.75)" stroke-linejoin="round" stroke-linecap="round"/><path stroke="#517293" id="115" ed:parentid="102" d="M-13.5,-27.5C3.1,-27.5,-8.2,27.5,13.5,27.5" fill="none" ed:tosuperid="114" transform="matrix(1,0,0,1,371.9,139.5)" stroke-linejoin="round" stroke-linecap="round"/><path stroke="#517293" id="117" ed:parentid="102" d="M-13.5,-41.3C4.8,-41.3,-12.2,41.3,13.5,41.3" fill="none" ed:tosuperid="116" transform="matrix(1,0,0,1,371.9,153.25)" stroke-linejoin="round" stroke-linecap="round"/><path stroke="#cc7eb0" id="119" ed:parentid="145" d="M-13.5,13.8C0.5,13.8,-2,-13.8,13.5,-13.8" fill="none" ed:tosuperid="118" transform="matrix(1,0,0,1,387.9,714)" stroke-linejoin="round" stroke-linecap="round"/><path stroke="#cc7eb0" id="121" ed:parentid="118" d="M-13.5,20.6L-0.5,20.6C-0.5,-4.1,5.1,-20.6,13.5,-20.6" fill="none" ed:tosuperid="120" transform="matrix(1,0,0,1,475.06,679.63)" stroke-linejoin="round" stroke-linecap="round"/><path stroke="#cc7eb0" id="123" ed:parentid="118" d="M-0.5,6.9C-0.5,-1.4,5.1,-6.9,13.5,-6.9" fill="none" ed:tosuperid="122" transform="matrix(1,0,0,1,475.06,693.38)" stroke-linejoin="round" stroke-linecap="round"/><path stroke="#cc7eb0" id="126" ed:parentid="118" d="M-0.5,-6.9C-0.5,1.4,5.1,6.9,13.5,6.9" fill="none" ed:tosuperid="125" transform="matrix(1,0,0,1,475.06,707.13)" stroke-linejoin="round" stroke-linecap="round"/><path stroke="#cc7eb0" id="128" ed:parentid="118" d="M-0.5,-20.6C-0.5,4.1,5.1,20.6,13.5,20.6" fill="none" ed:tosuperid="127" transform="matrix(1,0,0,1,475.06,720.88)" stroke-linejoin="round" stroke-linecap="round"/><path stroke="#30a3c0" id="130" ed:parentid="101" d="M-23.7,35.1C4.6,-1.4,18.6,-62.1,72.4,-62.1" stroke-width="3" fill="none" ed:tosuperid="129" transform="matrix(1,0,0,1,177.23,447.13)" stroke-linejoin="round" stroke-linecap="round"/><path stroke="#30a3c0" id="132" ed:parentid="129" d="M-13.5,13.8C0.5,13.8,-2,-13.8,13.5,-13.8" fill="none" ed:tosuperid="131" transform="matrix(1,0,0,1,371.9,371.25)" stroke-linejoin="round" stroke-linecap="round"/><path stroke="#30a3c0" id="134" ed:parentid="129" d="M-13.5,0C-2.7,0,5.4,0,13.5,0" fill="none" ed:tosuperid="133" transform="matrix(1,0,0,1,371.9,385)" stroke-linejoin="round" stroke-linecap="round"/><path stroke="#30a3c0" id="136" ed:parentid="129" d="M-13.5,-13.8C0.5,-13.8,-2,13.8,13.5,13.8" fill="none" ed:tosuperid="135" transform="matrix(1,0,0,1,371.9,398.75)" stroke-linejoin="round" stroke-linecap="round"/><path stroke="#f56b85" id="138" ed:parentid="101" d="M-33.6,89.6C-0.1,28.2,-9.1,-116.6,72.4,-116.6" stroke-width="3" fill="none" ed:tosuperid="137" transform="matrix(1,0,0,1,177.23,392.63)" stroke-linejoin="round" stroke-linecap="round"/><path stroke="#f56b85" id="140" ed:parentid="137" d="M-13.5,0C-2.7,0,5.4,0,13.5,0" fill="none" ed:tosuperid="139" transform="matrix(1,0,0,1,371.9,276)" stroke-linejoin="round" stroke-linecap="round"/><path stroke="#f56b85" id="142" ed:parentid="137" d="M-13.5,13.8C0.5,13.8,-2,-13.8,13.5,-13.8" fill="none" ed:tosuperid="141" transform="matrix(1,0,0,1,371.9,262.25)" stroke-linejoin="round" stroke-linecap="round"/><path stroke="#f56b85" id="144" ed:parentid="137" d="M-13.5,-13.8C0.5,-13.8,-2,13.8,13.5,13.8" fill="none" ed:tosuperid="143" transform="matrix(1,0,0,1,371.9,289.75)" stroke-linejoin="round" stroke-linecap="round"/><path stroke="#cc7eb0" id="146" ed:parentid="101" d="M-32.8,-82.3C-0,-23.8,-5.7,109.3,72.4,109.3" stroke-width="3" fill="none" ed:tosuperid="145" transform="matrix(1,0,0,1,177.23,618.5)" stroke-linejoin="round" stroke-linecap="round"/><path stroke="#cc7eb0" id="148" ed:parentid="145" d="M-13.5,103.1C5.4,103.1,-13.5,-103.1,13.5,-103.1" fill="none" ed:tosuperid="147" transform="matrix(1,0,0,1,387.9,624.63)" stroke-linejoin="round" stroke-linecap="round"/><path stroke="#cc7eb0" id="150" ed:parentid="147" d="M-13.5,27.5L-0.5,27.5C-0.5,-5.5,5.1,-27.5,13.5,-27.5" fill="none" ed:tosuperid="149" transform="matrix(1,0,0,1,449.06,494)" stroke-linejoin="round" stroke-linecap="round"/><path stroke="#cc7eb0" id="152" ed:parentid="147" d="M-0.5,13.8C-0.5,-2.8,5.1,-13.8,13.5,-13.8" fill="none" ed:tosuperid="151" transform="matrix(1,0,0,1,449.06,507.75)" stroke-linejoin="round" stroke-linecap="round"/><path stroke="#cc7eb0" id="154" ed:parentid="147" d="M-0.5,0C-0.5,0,5.1,0,13.5,0" fill="none" ed:tosuperid="153" transform="matrix(1,0,0,1,449.06,521.5)" stroke-linejoin="round" stroke-linecap="round"/><path stroke="#cc7eb0" id="156" ed:parentid="147" d="M-0.5,-13.8C-0.5,2.8,5.1,13.8,13.5,13.8" fill="none" ed:tosuperid="155" transform="matrix(1,0,0,1,449.06,535.25)" stroke-linejoin="round" stroke-linecap="round"/><path stroke="#cc7eb0" id="158" ed:parentid="145" d="M-13.5,55C5.4,55,-13.5,-55,13.5,-55" fill="none" ed:tosuperid="157" transform="matrix(1,0,0,1,387.9,672.75)" stroke-linejoin="round" stroke-linecap="round"/><path stroke="#cc7eb0" id="160" ed:parentid="145" d="M-13.5,-61.9C5.4,-61.9,-13.5,61.9,13.5,61.9" fill="none" ed:tosuperid="159" transform="matrix(1,0,0,1,387.9,789.63)" stroke-linejoin="round" stroke-linecap="round"/><path stroke="#cc7eb0" id="162" ed:parentid="145" d="M-13.5,-123.8C5.4,-123.8,-13.5,123.8,13.5,123.8" fill="none" ed:tosuperid="161" transform="matrix(1,0,0,1,387.9,851.5)" stroke-linejoin="round" stroke-linecap="round"/><path stroke="#cc7eb0" id="164" ed:parentid="157" d="M-13.5,6.9L-0.5,6.9C-0.5,-1.4,5.1,-6.9,13.5,-6.9" fill="none" ed:tosuperid="163" transform="matrix(1,0,0,1,475.06,610.88)" stroke-linejoin="round" stroke-linecap="round"/><path stroke="#cc7eb0" id="166" ed:parentid="157" d="M-0.5,-6.9C-0.5,1.4,5.1,6.9,13.5,6.9" fill="none" ed:tosuperid="165" transform="matrix(1,0,0,1,475.06,624.63)" stroke-linejoin="round" stroke-linecap="round"/><path stroke="#cc7eb0" id="168" ed:parentid="159" d="M-13.5,41.3L-0.5,41.3C-0.5,-8.3,5.1,-41.3,13.5,-41.3" fill="none" ed:tosuperid="167" transform="matrix(1,0,0,1,475.06,810.25)" stroke-linejoin="round" stroke-linecap="round"/><path stroke="#cc7eb0" id="170" ed:parentid="159" d="M-0.5,27.5C-0.5,-5.5,5.1,-27.5,13.5,-27.5" fill="none" ed:tosuperid="169" transform="matrix(1,0,0,1,475.06,824)" stroke-linejoin="round" stroke-linecap="round"/><path stroke="#cc7eb0" id="172" ed:parentid="159" d="M-0.5,13.8C-0.5,-2.8,5.1,-13.8,13.5,-13.8" fill="none" ed:tosuperid="171" transform="matrix(1,0,0,1,475.06,837.75)" stroke-linejoin="round" stroke-linecap="round"/><path stroke="#cc7eb0" id="174" ed:parentid="159" d="M-0.5,0C-0.5,0,5.1,0,13.5,0" fill="none" ed:tosuperid="173" transform="matrix(1,0,0,1,475.06,851.5)" stroke-linejoin="round" stroke-linecap="round"/><path stroke="#cc7eb0" id="176" ed:parentid="159" d="M-0.5,-13.8C-0.5,2.8,5.1,13.8,13.5,13.8" fill="none" ed:tosuperid="175" transform="matrix(1,0,0,1,475.06,865.25)" stroke-linejoin="round" stroke-linecap="round"/><path stroke="#cc7eb0" id="178" ed:parentid="159" d="M-0.5,-27.5C-0.5,5.5,5.1,27.5,13.5,27.5" fill="none" ed:tosuperid="177" transform="matrix(1,0,0,1,475.06,879)" stroke-linejoin="round" stroke-linecap="round"/><path stroke="#cc7eb0" id="180" ed:parentid="159" d="M-0.5,-41.3C-0.5,8.3,5.1,41.3,13.5,41.3" fill="none" ed:tosuperid="179" transform="matrix(1,0,0,1,475.06,892.75)" stroke-linejoin="round" stroke-linecap="round"/><path stroke="#cc7eb0" id="182" ed:parentid="161" d="M-13.5,6.9L-0.5,6.9C-0.5,-1.4,5.1,-6.9,13.5,-6.9" fill="none" ed:tosuperid="181" transform="matrix(1,0,0,1,475.06,968.38)" stroke-linejoin="round" stroke-linecap="round"/><path stroke="#cc7eb0" id="185" ed:parentid="161" d="M-0.5,-6.9C-0.5,1.4,5.1,6.9,13.5,6.9" fill="none" ed:tosuperid="184" transform="matrix(1,0,0,1,475.06,982.13)" stroke-linejoin="round" stroke-linecap="round"/><path stroke="#cc7eb0" id="187" ed:parentid="147" d="M-0.5,-27.5C-0.5,5.5,5.1,27.5,13.5,27.5" fill="none" ed:tosuperid="186" transform="matrix(1,0,0,1,449.06,549)" stroke-linejoin="round" stroke-linecap="round"/><g id="101" ed:layout="map" ed:width="163.64" ed:height="54" transform="matrix(1,0,0,1,23,482.25)" ed:topictype="mainidea"><path stroke="#3598db" d="M27,0L136.6,0C151.6,0,163.6,12.1,163.6,27C163.6,41.9,151.6,54,136.6,54L27,54C12.1,54,0,41.9,0,27C0,12.1,12.1,0,27,0z" fill="#3598db" stroke-width="3" stroke-linejoin="round"/><text class="st1"><tspan style="white-space:pre" y="34.9" x="23">多线程和并发</tspan></text></g><g id="102" ed:parentid="101" ed:layout="rightmap" ed:width="108.76" ed:height="36" transform="matrix(1,0,0,1,249.64,94)"><path stroke="#517293" d="M18,0L90.8,0C100.7,0,108.8,8.1,108.8,18C108.8,27.9,100.7,36,90.8,36L18,36C8.1,36,0,27.9,0,18C0,8.1,8.1,0,18,0z" fill="#517293" stroke-width="3" stroke-linejoin="round"/><text class="st2"><tspan style="white-space:pre" y="24.9" x="21">线程状态</tspan></text></g><g id="104" ed:parentid="102" ed:layout="rightmap" ed:width="47.16" ed:height="21" transform="matrix(1,0,0,1,385.4,19)"><path stroke="#517293" d="M10.5,0L36.7,0C42.5,0,47.2,4.7,47.2,10.5C47.2,16.3,42.5,21,36.7,21L10.5,21C4.7,21,0,16.3,0,10.5C0,4.7,4.7,0,10.5,0z" fill="#517293" stroke-linejoin="round"/><text class="st3"><tspan style="white-space:pre" y="15.9" x="9">初始</tspan></text></g><g id="106" ed:parentid="102" ed:layout="rightmap" ed:width="47.16" ed:height="21" transform="matrix(1,0,0,1,385.4,46.5)"><path stroke="#517293" d="M10.5,0L36.7,0C42.5,0,47.2,4.7,47.2,10.5C47.2,16.3,42.5,21,36.7,21L10.5,21C4.7,21,0,16.3,0,10.5C0,4.7,4.7,0,10.5,0z" fill="#517293" stroke-linejoin="round"/><text class="st3"><tspan style="white-space:pre" y="15.9" x="9">运行</tspan></text></g><g id="108" ed:parentid="102" ed:layout="rightmap" ed:width="60.16" ed:height="21" transform="matrix(1,0,0,1,385.4,74)"><path stroke="#517293" d="M10.5,0L49.7,0C55.5,0,60.2,4.7,60.2,10.5C60.2,16.3,55.5,21,49.7,21L10.5,21C4.7,21,0,16.3,0,10.5C0,4.7,4.7,0,10.5,0z" fill="#517293" stroke-linejoin="round"/><text class="st3"><tspan style="white-space:pre" y="15.9" x="9">运行中</tspan></text></g><g id="110" ed:parentid="102" ed:layout="rightmap" ed:width="73.16" ed:height="21" transform="matrix(1,0,0,1,385.4,101.5)"><path stroke="#517293" d="M10.5,0L62.7,0C68.5,0,73.2,4.7,73.2,10.5C73.2,16.3,68.5,21,62.7,21L10.5,21C4.7,21,0,16.3,0,10.5C0,4.7,4.7,0,10.5,0z" fill="#517293" stroke-linejoin="round"/><text class="st3"><tspan style="white-space:pre" y="15.9" x="9">超时等待</tspan></text></g><g id="112" ed:parentid="102" ed:layout="rightmap" ed:width="47.16" ed:height="21" transform="matrix(1,0,0,1,385.4,129)"><path stroke="#517293" d="M10.5,0L36.7,0C42.5,0,47.2,4.7,47.2,10.5C47.2,16.3,42.5,21,36.7,21L10.5,21C4.7,21,0,16.3,0,10.5C0,4.7,4.7,0,10.5,0z" fill="#517293" stroke-linejoin="round"/><text class="st3"><tspan style="white-space:pre" y="15.9" x="9">等待</tspan></text></g><g id="114" ed:parentid="102" ed:layout="rightmap" ed:width="47.16" ed:height="21" transform="matrix(1,0,0,1,385.4,156.5)"><path stroke="#517293" d="M10.5,0L36.7,0C42.5,0,47.2,4.7,47.2,10.5C47.2,16.3,42.5,21,36.7,21L10.5,21C4.7,21,0,16.3,0,10.5C0,4.7,4.7,0,10.5,0z" fill="#517293" stroke-linejoin="round"/><text class="st3"><tspan style="white-space:pre" y="15.9" x="9">阻塞</tspan></text></g><g id="116" ed:parentid="102" ed:layout="rightmap" ed:width="47.16" ed:height="21" transform="matrix(1,0,0,1,385.4,184)"><path stroke="#517293" d="M10.5,0L36.7,0C42.5,0,47.2,4.7,47.2,10.5C47.2,16.3,42.5,21,36.7,21L10.5,21C4.7,21,0,16.3,0,10.5C0,4.7,4.7,0,10.5,0z" fill="#517293" stroke-linejoin="round"/><text class="st3"><tspan style="white-space:pre" y="15.9" x="9">终止</tspan></text></g><g id="118" ed:parentid="145" ed:layout="rightmap" ed:width="60.16" ed:height="21" transform="matrix(1,0,0,1,401.4,689.75)"><path stroke="#cc7eb0" d="M10.5,0L49.7,0C55.5,0,60.2,4.7,60.2,10.5C60.2,16.3,55.5,21,49.7,21L10.5,21C4.7,21,0,16.3,0,10.5C0,4.7,4.7,0,10.5,0z" fill="#cc7eb0" stroke-linejoin="round"/><text class="st3"><tspan style="white-space:pre" y="15.9" x="9">线程池</tspan></text></g><g id="120" ed:parentid="118" ed:layout="rightmap" ed:width="86.16" ed:height="21" transform="matrix(1,0,0,1,488.56,648.5)"><path stroke="#cc7eb0" d="M10.5,0L75.7,0C81.5,0,86.2,4.7,86.2,10.5C86.2,16.3,81.5,21,75.7,21L10.5,21C4.7,21,0,16.3,0,10.5C0,4.7,4.7,0,10.5,0z" fill="#cc7eb0" stroke-linejoin="round"/><text class="st3"><tspan style="white-space:pre" y="15.9" x="9">单一线程池</tspan></text></g><g id="122" ed:parentid="118" ed:layout="rightmap" ed:width="86.16" ed:height="21" transform="matrix(1,0,0,1,488.56,676)"><path stroke="#cc7eb0" d="M10.5,0L75.7,0C81.5,0,86.2,4.7,86.2,10.5C86.2,16.3,81.5,21,75.7,21L10.5,21C4.7,21,0,16.3,0,10.5C0,4.7,4.7,0,10.5,0z" fill="#cc7eb0" stroke-linejoin="round"/><text class="st3"><tspan style="white-space:pre" y="15.9" x="9">固定线程池</tspan></text></g><g id="125" ed:parentid="118" ed:layout="rightmap" ed:width="99.16" ed:height="21" transform="matrix(1,0,0,1,488.56,703.5)"><path stroke="#cc7eb0" d="M10.5,0L88.7,0C94.5,0,99.2,4.7,99.2,10.5C99.2,16.3,94.5,21,88.7,21L10.5,21C4.7,21,0,16.3,0,10.5C0,4.7,4.7,0,10.5,0z" fill="#cc7eb0" stroke-linejoin="round"/><text class="st3"><tspan style="white-space:pre" y="15.9" x="9">可缓存线程池</tspan></text></g><g id="127" ed:parentid="118" ed:layout="rightmap" ed:width="86.16" ed:height="21" transform="matrix(1,0,0,1,488.56,731)"><path stroke="#cc7eb0" d="M10.5,0L75.7,0C81.5,0,86.2,4.7,86.2,10.5C86.2,16.3,81.5,21,75.7,21L10.5,21C4.7,21,0,16.3,0,10.5C0,4.7,4.7,0,10.5,0z" fill="#cc7eb0" stroke-linejoin="round"/><text class="st3"><tspan style="white-space:pre" y="15.9" x="9">定时线程池</tspan></text></g><g id="129" ed:parentid="101" ed:layout="rightmap" ed:width="108.76" ed:height="36" transform="matrix(1,0,0,1,249.64,367)"><path stroke="#30a3c0" d="M18,0L90.8,0C100.7,0,108.8,8.1,108.8,18C108.8,27.9,100.7,36,90.8,36L18,36C8.1,36,0,27.9,0,18C0,8.1,8.1,0,18,0z" fill="#30a3c0" stroke-width="3" stroke-linejoin="round"/><text class="st2"><tspan style="white-space:pre" y="24.9" x="21">基础接口</tspan></text></g><g id="131" ed:parentid="129" ed:layout="rightmap" ed:width="77.16" ed:height="21" transform="matrix(1,0,0,1,385.4,347)"><path stroke="#30a3c0" d="M10.5,0L66.7,0C72.5,0,77.2,4.7,77.2,10.5C77.2,16.3,72.5,21,66.7,21L10.5,21C4.7,21,0,16.3,0,10.5C0,4.7,4.7,0,10.5,0z" fill="#30a3c0" stroke-linejoin="round"/><text class="st3"><tspan style="white-space:pre" y="15.9" x="9">runnable</tspan></text></g><g id="133" ed:parentid="129" ed:layout="rightmap" ed:width="77.16" ed:height="21" transform="matrix(1,0,0,1,385.4,374.5)"><path stroke="#30a3c0" d="M10.5,0L66.7,0C72.5,0,77.2,4.7,77.2,10.5C77.2,16.3,72.5,21,66.7,21L10.5,21C4.7,21,0,16.3,0,10.5C0,4.7,4.7,0,10.5,0z" fill="#30a3c0" stroke-linejoin="round"/><text class="st3"><tspan style="white-space:pre" y="15.9" x="9">callable</tspan></text></g><g id="135" ed:parentid="129" ed:layout="rightmap" ed:width="63.16" ed:height="21" transform="matrix(1,0,0,1,385.4,402)"><path stroke="#30a3c0" d="M10.5,0L52.7,0C58.5,0,63.2,4.7,63.2,10.5C63.2,16.3,58.5,21,52.7,21L10.5,21C4.7,21,0,16.3,0,10.5C0,4.7,4.7,0,10.5,0z" fill="#30a3c0" stroke-linejoin="round"/><text class="st3"><tspan style="white-space:pre" y="15.9" x="9">future</tspan></text></g><g id="137" ed:parentid="101" ed:layout="rightmap" ed:width="108.76" ed:height="36" transform="matrix(1,0,0,1,249.64,258)"><path stroke="#f56b85" d="M18,0L90.8,0C100.7,0,108.8,8.1,108.8,18C108.8,27.9,100.7,36,90.8,36L18,36C8.1,36,0,27.9,0,18C0,8.1,8.1,0,18,0z" fill="#f56b85" stroke-width="3" stroke-linejoin="round"/><text class="st2"><tspan style="white-space:pre" y="24.9" x="21">线程安全</tspan></text></g><g id="139" ed:parentid="137" ed:layout="rightmap" ed:width="60.16" ed:height="21" transform="matrix(1,0,0,1,385.4,265.5)"><path stroke="#f56b85" d="M10.5,0L49.7,0C55.5,0,60.2,4.7,60.2,10.5C60.2,16.3,55.5,21,49.7,21L10.5,21C4.7,21,0,16.3,0,10.5C0,4.7,4.7,0,10.5,0z" fill="#f56b85" stroke-linejoin="round"/><text class="st3"><tspan style="white-space:pre" y="15.9" x="9">可见性</tspan></text></g><g id="141" ed:parentid="137" ed:layout="rightmap" ed:width="60.16" ed:height="21" transform="matrix(1,0,0,1,385.4,238)"><path stroke="#f56b85" d="M10.5,0L49.7,0C55.5,0,60.2,4.7,60.2,10.5C60.2,16.3,55.5,21,49.7,21L10.5,21C4.7,21,0,16.3,0,10.5C0,4.7,4.7,0,10.5,0z" fill="#f56b85" stroke-linejoin="round"/><text class="st3"><tspan style="white-space:pre" y="15.9" x="9">原子性</tspan></text></g><g id="143" ed:parentid="137" ed:layout="rightmap" ed:width="60.16" ed:height="21" transform="matrix(1,0,0,1,385.4,293)"><path stroke="#f56b85" d="M10.5,0L49.7,0C55.5,0,60.2,4.7,60.2,10.5C60.2,16.3,55.5,21,49.7,21L10.5,21C4.7,21,0,16.3,0,10.5C0,4.7,4.7,0,10.5,0z" fill="#f56b85" stroke-linejoin="round"/><text class="st3"><tspan style="white-space:pre" y="15.9" x="9">顺序性</tspan></text></g><g id="145" ed:parentid="101" ed:layout="rightmap" ed:width="124.76" ed:height="36" transform="matrix(1,0,0,1,249.64,709.75)"><path stroke="#cc7eb0" d="M18,0L106.8,0C116.7,0,124.8,8.1,124.8,18C124.8,27.9,116.7,36,106.8,36L18,36C8.1,36,0,27.9,0,18C0,8.1,8.1,0,18,0z" fill="#cc7eb0" stroke-width="3" stroke-linejoin="round"/><text class="st2"><tspan style="white-space:pre" y="24.9" x="21">java并发包</tspan></text></g><g id="147" ed:parentid="145" ed:layout="rightmap" ed:width="34.16" ed:height="21" transform="matrix(1,0,0,1,401.4,511)"><path stroke="#cc7eb0" d="M10.5,0L23.7,0C29.5,0,34.2,4.7,34.2,10.5C34.2,16.3,29.5,21,23.7,21L10.5,21C4.7,21,0,16.3,0,10.5C0,4.7,4.7,0,10.5,0z" fill="#cc7eb0" stroke-linejoin="round"/><text class="st3"><tspan style="white-space:pre" y="15.9" x="9">锁</tspan></text></g><g id="149" ed:parentid="147" ed:layout="rightmap" ed:width="73.16" ed:height="21" transform="matrix(1,0,0,1,462.56,456)"><path stroke="#cc7eb0" d="M10.5,0L62.7,0C68.5,0,73.2,4.7,73.2,10.5C73.2,16.3,68.5,21,62.7,21L10.5,21C4.7,21,0,16.3,0,10.5C0,4.7,4.7,0,10.5,0z" fill="#cc7eb0" stroke-linejoin="round"/><text class="st3"><tspan style="white-space:pre" y="15.9" x="9">可重入锁</tspan></text></g><g id="151" ed:parentid="147" ed:layout="rightmap" ed:width="60.16" ed:height="21" transform="matrix(1,0,0,1,462.56,483.5)"><path stroke="#cc7eb0" d="M10.5,0L49.7,0C55.5,0,60.2,4.7,60.2,10.5C60.2,16.3,55.5,21,49.7,21L10.5,21C4.7,21,0,16.3,0,10.5C0,4.7,4.7,0,10.5,0z" fill="#cc7eb0" stroke-linejoin="round"/><text class="st3"><tspan style="white-space:pre" y="15.9" x="9">偏向锁</tspan></text></g><g id="153" ed:parentid="147" ed:layout="rightmap" ed:width="60.16" ed:height="21" transform="matrix(1,0,0,1,462.56,511)"><path stroke="#cc7eb0" d="M10.5,0L49.7,0C55.5,0,60.2,4.7,60.2,10.5C60.2,16.3,55.5,21,49.7,21L10.5,21C4.7,21,0,16.3,0,10.5C0,4.7,4.7,0,10.5,0z" fill="#cc7eb0" stroke-linejoin="round"/><text class="st3"><tspan style="white-space:pre" y="15.9" x="9">公平锁</tspan></text></g><g id="155" ed:parentid="147" ed:layout="rightmap" ed:width="60.16" ed:height="21" transform="matrix(1,0,0,1,462.56,538.5)"><path stroke="#cc7eb0" d="M10.5,0L49.7,0C55.5,0,60.2,4.7,60.2,10.5C60.2,16.3,55.5,21,49.7,21L10.5,21C4.7,21,0,16.3,0,10.5C0,4.7,4.7,0,10.5,0z" fill="#cc7eb0" stroke-linejoin="round"/><text class="st3"><tspan style="white-space:pre" y="15.9" x="9">读写锁</tspan></text></g><g id="157" ed:parentid="145" ed:layout="rightmap" ed:width="60.16" ed:height="21" transform="matrix(1,0,0,1,401.4,607.25)"><path stroke="#cc7eb0" d="M10.5,0L49.7,0C55.5,0,60.2,4.7,60.2,10.5C60.2,16.3,55.5,21,49.7,21L10.5,21C4.7,21,0,16.3,0,10.5C0,4.7,4.7,0,10.5,0z" fill="#cc7eb0" stroke-linejoin="round"/><text class="st3"><tspan style="white-space:pre" y="15.9" x="9">原子类</tspan></text></g><g id="159" ed:parentid="145" ed:layout="rightmap" ed:width="60.16" ed:height="21" transform="matrix(1,0,0,1,401.4,841)"><path stroke="#cc7eb0" d="M10.5,0L49.7,0C55.5,0,60.2,4.7,60.2,10.5C60.2,16.3,55.5,21,49.7,21L10.5,21C4.7,21,0,16.3,0,10.5C0,4.7,4.7,0,10.5,0z" fill="#cc7eb0" stroke-linejoin="round"/><text class="st3"><tspan style="white-space:pre" y="15.9" x="9">工具类</tspan></text></g><g id="161" ed:parentid="145" ed:layout="rightmap" ed:width="60.16" ed:height="21" transform="matrix(1,0,0,1,401.4,964.75)"><path stroke="#cc7eb0" d="M10.5,0L49.7,0C55.5,0,60.2,4.7,60.2,10.5C60.2,16.3,55.5,21,49.7,21L10.5,21C4.7,21,0,16.3,0,10.5C0,4.7,4.7,0,10.5,0z" fill="#cc7eb0" stroke-linejoin="round"/><text class="st3"><tspan style="white-space:pre" y="15.9" x="9">集合类</tspan></text></g><g id="163" ed:parentid="157" ed:layout="rightmap" ed:width="63.16" ed:height="21" transform="matrix(1,0,0,1,488.56,593.5)"><path stroke="#cc7eb0" d="M10.5,0L52.7,0C58.5,0,63.2,4.7,63.2,10.5C63.2,16.3,58.5,21,52.7,21L10.5,21C4.7,21,0,16.3,0,10.5C0,4.7,4.7,0,10.5,0z" fill="#cc7eb0" stroke-linejoin="round"/><text class="st3"><tspan style="white-space:pre" y="15.9" x="9">Atomic</tspan></text></g><g id="165" ed:parentid="157" ed:layout="rightmap" ed:width="84.16" ed:height="21" transform="matrix(1,0,0,1,488.56,621)"><path stroke="#cc7eb0" d="M10.5,0L73.7,0C79.5,0,84.2,4.7,84.2,10.5C84.2,16.3,79.5,21,73.7,21L10.5,21C4.7,21,0,16.3,0,10.5C0,4.7,4.7,0,10.5,0z" fill="#cc7eb0" stroke-linejoin="round"/><text class="st3"><tspan style="white-space:pre" y="15.9" x="9">LongAdder</tspan></text></g><g id="167" ed:parentid="159" ed:layout="rightmap" ed:width="42.16" ed:height="21" transform="matrix(1,0,0,1,488.56,758.5)"><path stroke="#cc7eb0" d="M10.5,0L31.7,0C37.5,0,42.2,4.7,42.2,10.5C42.2,16.3,37.5,21,31.7,21L10.5,21C4.7,21,0,16.3,0,10.5C0,4.7,4.7,0,10.5,0z" fill="#cc7eb0" stroke-linejoin="round"/><text class="st3"><tspan style="white-space:pre" y="15.9" x="9">AQS</tspan></text></g><g id="169" ed:parentid="159" ed:layout="rightmap" ed:width="84.16" ed:height="21" transform="matrix(1,0,0,1,488.56,786)"><path stroke="#cc7eb0" d="M10.5,0L73.7,0C79.5,0,84.2,4.7,84.2,10.5C84.2,16.3,79.5,21,73.7,21L10.5,21C4.7,21,0,16.3,0,10.5C0,4.7,4.7,0,10.5,0z" fill="#cc7eb0" stroke-linejoin="round"/><text class="st3"><tspan style="white-space:pre" y="15.9" x="9">Semaphore</tspan></text></g><g id="171" ed:parentid="159" ed:layout="rightmap" ed:width="119.16" ed:height="21" transform="matrix(1,0,0,1,488.56,813.5)"><path stroke="#cc7eb0" d="M10.5,0L108.7,0C114.5,0,119.2,4.7,119.2,10.5C119.2,16.3,114.5,21,108.7,21L10.5,21C4.7,21,0,16.3,0,10.5C0,4.7,4.7,0,10.5,0z" fill="#cc7eb0" stroke-linejoin="round"/><text class="st3"><tspan style="white-space:pre" y="15.9" x="9">CountDownLatch</tspan></text></g><g id="173" ed:parentid="159" ed:layout="rightmap" ed:width="112.16" ed:height="21" transform="matrix(1,0,0,1,488.56,841)"><path stroke="#cc7eb0" d="M10.5,0L101.7,0C107.5,0,112.2,4.7,112.2,10.5C112.2,16.3,107.5,21,101.7,21L10.5,21C4.7,21,0,16.3,0,10.5C0,4.7,4.7,0,10.5,0z" fill="#cc7eb0" stroke-linejoin="round"/><text class="st3"><tspan style="white-space:pre" y="15.9" x="9">CyclicBarrier</tspan></text></g><g id="175" ed:parentid="159" ed:layout="rightmap" ed:width="63.16" ed:height="21" transform="matrix(1,0,0,1,488.56,868.5)"><path stroke="#cc7eb0" d="M10.5,0L52.7,0C58.5,0,63.2,4.7,63.2,10.5C63.2,16.3,58.5,21,52.7,21L10.5,21C4.7,21,0,16.3,0,10.5C0,4.7,4.7,0,10.5,0z" fill="#cc7eb0" stroke-linejoin="round"/><text class="st3"><tspan style="white-space:pre" y="15.9" x="9">Future</tspan></text></g><g id="177" ed:parentid="159" ed:layout="rightmap" ed:width="91.16" ed:height="21" transform="matrix(1,0,0,1,488.56,896)"><path stroke="#cc7eb0" d="M10.5,0L80.7,0C86.5,0,91.2,4.7,91.2,10.5C91.2,16.3,86.5,21,80.7,21L10.5,21C4.7,21,0,16.3,0,10.5C0,4.7,4.7,0,10.5,0z" fill="#cc7eb0" stroke-linejoin="round"/><text class="st3"><tspan style="white-space:pre" y="15.9" x="9">FutureTask</tspan></text></g><g id="179" ed:parentid="159" ed:layout="rightmap" ed:width="140.16" ed:height="21" transform="matrix(1,0,0,1,488.56,923.5)"><path stroke="#cc7eb0" d="M10.5,0L129.7,0C135.5,0,140.2,4.7,140.2,10.5C140.2,16.3,135.5,21,129.7,21L10.5,21C4.7,21,0,16.3,0,10.5C0,4.7,4.7,0,10.5,0z" fill="#cc7eb0" stroke-linejoin="round"/><text class="st3"><tspan style="white-space:pre" y="15.9" x="9">CompletableFuture</tspan></text></g><g id="181" ed:parentid="161" ed:layout="rightmap" ed:width="161.16" ed:height="21" transform="matrix(1,0,0,1,488.56,951)"><path stroke="#cc7eb0" d="M10.5,0L150.7,0C156.5,0,161.2,4.7,161.2,10.5C161.2,16.3,156.5,21,150.7,21L10.5,21C4.7,21,0,16.3,0,10.5C0,4.7,4.7,0,10.5,0z" fill="#cc7eb0" stroke-linejoin="round"/><text class="st3"><tspan style="white-space:pre" y="15.9" x="9">CopyOnWriteArrayList</tspan></text></g><g id="184" ed:parentid="161" ed:layout="rightmap" ed:width="140.16" ed:height="21" transform="matrix(1,0,0,1,488.56,978.5)"><path stroke="#cc7eb0" d="M10.5,0L129.7,0C135.5,0,140.2,4.7,140.2,10.5C140.2,16.3,135.5,21,129.7,21L10.5,21C4.7,21,0,16.3,0,10.5C0,4.7,4.7,0,10.5,0z" fill="#cc7eb0" stroke-linejoin="round"/><text class="st3"><tspan style="white-space:pre" y="15.9" x="9">ConcurrentHashMap</tspan></text></g><g id="186" ed:parentid="147" ed:layout="rightmap" ed:width="60.16" ed:height="21" transform="matrix(1,0,0,1,462.56,566)"><path stroke="#cc7eb0" d="M10.5,0L49.7,0C55.5,0,60.2,4.7,60.2,10.5C60.2,16.3,55.5,21,49.7,21L10.5,21C4.7,21,0,16.3,0,10.5C0,4.7,4.7,0,10.5,0z" fill="#cc7eb0" stroke-linejoin="round"/><text class="st3"><tspan style="white-space:pre" y="15.9" x="9">自旋锁</tspan></text></g></svg>